<?xml version="1.0" encoding="UTF-8"?>
<svg width="253px" height="136px" viewBox="0 0 253 136" version="1.1" xmlns="http://www.w3.org/2000/svg" xmlns:xlink="http://www.w3.org/1999/xlink">
    <!-- Generator: Sketch 53.2 (72643) - https://sketchapp.com -->
    <title>Uitgeverij Creativiti Logo</title>
    <desc>Created with Sketch.</desc>
    <g id="Page-1" stroke="none" stroke-width="1" fill="none" fill-rule="evenodd">
        <g id="Uitgeverij-Creativiti-Logo" transform="translate(0.000000, -1.000000)">
            <polygon id="Fill-1" fill="#84BF41" points="179.0684 78.7637 223.6764 86.1677 245.4844 55.1047 202.1864 47.2187"></polygon>
            <polygon id="Fill-3" fill="#00A3DA" points="179.0684 78.7637 135.4524 86.9057 157.2594 54.9447 202.1864 47.2187"></polygon>
            <g id="Group-36" transform="translate(0.000000, 0.890000)">
                <path d="M179.0684,77.8737 C179.0684,77.8737 171.1374,59.5267 141.0694,55.6637 C155.6084,35.3847 163.5384,24.4407 163.5384,24.4407 C163.5384,24.4407 193.8154,27.9807 202.1864,46.3287 C190.2094,62.6717 179.0684,77.8737 179.0684,77.8737" id="Fill-4" fill="#572A79"></path>
                <path d="M190.209,0.7277 C190.209,0.7277 210.239,13.7107 202.187,46.3287 C196.513,54.1037 179.068,77.8737 179.068,77.8737 C179.068,77.8737 190.071,49.9777 168.819,32.0587 C179.179,16.8227 190.209,0.7277 190.209,0.7277" id="Fill-6" fill="#D8232A"></path>
                <path d="M179.0684,77.8737 L202.1864,46.3287 C202.1864,46.3287 215.6634,25.6477 252.2584,27.6697 C242.3674,41.8367 230.1744,59.0977 230.1744,59.0977 C230.1744,59.0977 202.9694,54.9127 179.0684,77.8737" id="Fill-8" fill="#FBD020"></path>
                <path d="M19.2739,94.5133 C22.8199,94.5133 26.2549,94.7893 30.2989,95.8983 L30.2989,104.0423 C28.2499,103.3223 24.2049,102.2693 21.0469,102.2693 C13.7339,102.2693 9.7449,105.6493 9.7449,114.8463 C9.7449,124.9303 14.8969,127.9773 20.5479,127.9773 C23.7069,127.9773 27.4739,127.2013 30.4109,125.8173 L30.4109,133.8503 C26.9199,135.1803 22.5429,135.7343 19.3849,135.7343 C6.7529,135.7343 0.4359,128.2543 0.4359,115.0683 C0.4359,102.3253 7.2519,94.5133 19.2739,94.5133" id="Fill-10" fill="#1A1919"></path>
                <path d="M55.061,113.4615 C51.404,114.0705 48.357,115.1235 44.645,116.3985 L44.645,135.0685 L35.78,135.0685 L35.78,104.5415 L44.146,104.5415 L44.146,109.3065 C47.194,107.3115 50.518,104.4855 55.061,104.3745 L55.061,113.4615 Z" id="Fill-12" fill="#1A1919"></path>
                <path d="M76.8325,115.899 C76.7765,113.572 75.9455,110.747 71.6805,110.747 C68.4105,110.747 66.4725,113.184 66.4725,115.899 L76.8325,115.899 Z M85.3095,133.795 C81.0435,135.014 77.1645,135.734 72.8985,135.734 C62.7045,135.734 57.2745,130.748 57.2745,119.833 C57.2745,108.973 63.2025,103.877 72.2335,103.877 C82.8155,103.877 85.8085,110.581 85.8085,118.282 L85.8085,122.215 L66.5825,122.215 C66.6935,126.592 69.8515,128.033 75.1705,128.033 C77.6635,128.033 81.8745,127.257 85.3095,126.259 L85.3095,133.795 Z" id="Fill-14" fill="#1A1919"></path>
                <path d="M107.4126,121.9381 L102.3706,121.9381 C99.2676,121.9381 97.8826,122.9911 97.8826,124.9301 C97.8826,127.1461 99.4336,128.1991 101.5396,128.1991 C103.6996,128.1991 105.8056,127.5341 107.4126,126.5921 L107.4126,121.9381 Z M107.4126,116.1761 L107.4126,114.6251 C107.4126,112.5751 106.0826,111.0791 101.3736,111.0791 C98.8246,111.0791 94.3916,111.6331 91.5116,112.4641 L91.5116,105.1511 C95.5006,104.3201 100.2096,103.8761 103.5896,103.8761 C111.4566,103.8761 116.2766,107.6441 116.2766,115.2341 L116.2766,135.0691 L108.7416,135.0691 L108.0776,132.0781 L107.8556,132.0781 C104.5866,134.4041 101.4836,135.5121 98.4916,135.5121 C93.1736,135.5121 88.9626,132.1881 88.9626,125.5951 C88.9626,119.9991 93.0626,116.1761 100.8186,116.1761 L107.4126,116.1761 Z" id="Fill-16" fill="#1A1919"></path>
                <path d="M132.7271,124.7643 C132.7271,127.2023 134.3891,127.8673 136.3841,127.8673 C137.7141,127.8673 139.1541,127.5893 140.4291,127.3123 L140.4291,134.7373 C137.8801,135.2903 134.2781,135.6783 131.7861,135.6783 C127.6301,135.6783 123.8631,134.3493 123.8631,128.0333 L123.8631,112.0213 L120.2061,112.0213 L120.2061,106.0363 L128.9601,97.7263 L132.7831,97.7263 L132.7831,104.5413 L141.5921,104.5413 L141.5921,112.0213 L132.7271,112.0213 L132.7271,124.7643 Z" id="Fill-18" fill="#1A1919"></path>
                <path d="M145.855,135.069 L154.72,135.069 L154.72,104.542 L145.855,104.542 L145.855,135.069 Z M145.744,101.217 L154.83,101.217 L154.83,93.405 L145.744,93.405 L145.744,101.217 Z" id="Fill-20" fill="#1A1919"></path>
                <polygon id="Fill-22" fill="#1A1919" points="167.4619 104.5416 173.6109 125.3736 173.9429 125.3736 179.9829 104.5416 189.2349 104.5416 179.3729 135.0686 167.9039 135.0686 158.0429 104.5416"></polygon>
                <path d="M192.555,135.069 L201.42,135.069 L201.42,104.542 L192.555,104.542 L192.555,135.069 Z M192.444,101.217 L201.53,101.217 L201.53,93.405 L192.444,93.405 L192.444,101.217 Z" id="Fill-23" fill="#1A1919"></path>
                <path d="M218.1504,124.7643 C218.1504,127.2023 219.8124,127.8673 221.8074,127.8673 C223.1374,127.8673 224.5784,127.5893 225.8524,127.3123 L225.8524,134.7373 C223.3034,135.2903 219.7024,135.6783 217.2094,135.6783 C213.0534,135.6783 209.2864,134.3493 209.2864,128.0333 L209.2864,112.0213 L205.6294,112.0213 L205.6294,106.0363 L214.3834,97.7263 L218.2064,97.7263 L218.2064,104.5413 L227.0154,104.5413 L227.0154,112.0213 L218.1504,112.0213 L218.1504,124.7643 Z" id="Fill-24" fill="#1A1919"></path>
                <path d="M231.279,135.069 L240.144,135.069 L240.144,104.542 L231.279,104.542 L231.279,135.069 Z M231.168,101.217 L240.254,101.217 L240.254,93.405 L231.168,93.405 L231.168,101.217 Z" id="Fill-25" fill="#1A1919"></path>
                <path d="M18.7939,73.0333 L18.7939,81.6453 C18.7939,82.7273 19.2549,83.3253 20.4519,83.3253 C21.4879,83.3253 22.8699,82.7733 24.1129,82.0823 L24.1129,73.0333 L26.9449,73.0333 L26.9449,85.6053 L24.5509,85.6053 L24.3199,84.2243 L24.2289,84.2243 C22.5939,85.2133 21.0269,85.8813 19.6229,85.8813 C17.3439,85.8813 15.9619,84.7303 15.9619,82.1983 L15.9619,73.0333 L18.7939,73.0333 Z" id="Fill-26" fill="#1A1919"></path>
                <path d="M30.123,85.605 L32.955,85.605 L32.955,73.033 L30.123,73.033 L30.123,85.605 Z M30.078,71.329 L32.979,71.329 L32.979,68.52 L30.078,68.52 L30.078,71.329 Z" id="Fill-27" fill="#1A1919"></path>
                <path d="M39.4941,81.9899 C39.4941,83.0499 40.2541,83.3719 41.0601,83.3719 C41.6361,83.3719 42.3041,83.2339 42.8561,83.0729 L42.8561,85.4899 C41.8891,85.6749 40.5991,85.8589 39.6331,85.8589 C38.0661,85.8589 36.6621,85.3519 36.6621,82.9579 L36.6621,75.4509 L35.0271,75.4509 L35.0271,73.7009 L38.5971,70.2699 L39.5171,70.2699 L39.5171,73.0559 L43.3401,73.0559 L43.3401,75.4509 L39.4941,75.4509 L39.4941,81.9899 Z" id="Fill-28" fill="#1A1919"></path>
                <path d="M50.1084,74.9445 C48.2664,74.9445 47.5294,75.8655 47.5294,77.2935 C47.5294,78.7205 48.2664,79.5955 50.1084,79.5955 C51.9044,79.5955 52.6644,78.7435 52.6644,77.2705 C52.6644,75.8655 51.9044,74.9445 50.1084,74.9445 L50.1084,74.9445 Z M49.2114,85.5825 C48.1054,85.7435 47.3684,86.2495 47.3684,87.2395 C47.3684,88.3685 48.3364,88.6215 50.2474,88.6215 C52.5484,88.6215 53.7694,88.2305 53.7694,86.8955 C53.7694,86.0205 53.1714,85.5825 52.2044,85.5825 L49.2114,85.5825 Z M50.0624,72.7565 C51.4904,72.7565 52.9404,73.0335 54.2764,73.0335 C55.1734,73.0335 56.1184,72.9645 56.9694,72.8025 L56.9694,75.0595 C56.2334,75.0595 55.3584,75.0365 54.5064,75.0365 C55.1284,75.5665 55.4964,76.3715 55.4964,77.3855 C55.4964,80.6315 52.7794,81.5755 50.0394,81.5755 C49.5094,81.5755 48.9574,81.5525 48.4514,81.4845 C48.2434,81.7605 48.0824,82.1055 48.0824,82.5205 C48.0824,83.0265 48.3584,83.4175 49.0724,83.4175 L52.8254,83.4175 C54.8294,83.4175 56.6934,84.0165 56.6934,86.6185 C56.6934,89.3585 54.2074,90.6025 49.8784,90.6025 C46.1704,90.6025 44.4664,89.5885 44.4664,87.5855 C44.4664,86.4575 44.9514,85.3745 46.5864,84.8225 L46.5864,84.7075 C45.9184,84.3165 45.5954,83.6255 45.5954,83.0495 C45.5954,82.3135 45.9874,81.4605 46.7694,80.8615 C45.4804,80.2405 44.6514,79.0425 44.6514,77.3165 C44.6514,74.4845 46.7014,72.7565 50.0624,72.7565 L50.0624,72.7565 Z" id="Fill-29" fill="#1A1919"></path>
                <path d="M66.7559,78.0299 C66.7339,76.6479 66.3419,74.9899 64.0159,74.9899 C62.1049,74.9899 61.1379,76.3489 61.1379,78.0299 L66.7559,78.0299 Z M69.4039,85.0759 C67.7229,85.5829 66.2489,85.8819 64.4769,85.8819 C60.3779,85.8819 58.2139,83.8549 58.2139,79.3189 C58.2139,74.9449 60.4469,72.7569 64.1769,72.7569 C68.5749,72.7569 69.6339,75.6579 69.6339,78.7899 L69.6339,80.0789 L61.1839,80.0789 C61.2069,82.4969 62.6569,83.4179 65.1449,83.4179 C66.3189,83.4179 68.0229,83.0729 69.4039,82.6349 L69.4039,85.0759 Z" id="Fill-30" fill="#1A1919"></path>
                <polygon id="Fill-31" fill="#1A1919" points="73.7324 73.0333 76.7034 82.5203 76.8404 82.5203 79.8114 73.0333 82.7824 73.0333 78.5444 85.6283 74.9294 85.6283 70.7394 73.0333"></polygon>
                <path d="M92.291,78.0299 C92.269,76.6479 91.877,74.9899 89.551,74.9899 C87.64,74.9899 86.673,76.3489 86.673,78.0299 L92.291,78.0299 Z M94.939,85.0759 C93.258,85.5829 91.784,85.8819 90.012,85.8819 C85.913,85.8819 83.749,83.8549 83.749,79.3189 C83.749,74.9449 85.982,72.7569 89.712,72.7569 C94.11,72.7569 95.169,75.6579 95.169,78.7899 L95.169,80.0789 L86.719,80.0789 C86.742,82.4969 88.192,83.4179 90.68,83.4179 C91.854,83.4179 93.558,83.0729 94.939,82.6349 L94.939,85.0759 Z" id="Fill-32" fill="#1A1919"></path>
                <path d="M105.1855,75.8883 C103.5275,76.1423 102.2385,76.7173 100.5565,77.4543 L100.5565,85.6053 L97.7485,85.6053 L97.7485,73.0333 L100.4185,73.0333 L100.4185,75.1513 C101.7775,74.2763 103.2055,73.0793 105.1855,72.9643 L105.1855,75.8883 Z" id="Fill-33" fill="#1A1919"></path>
                <path d="M107.143,85.605 L109.975,85.605 L109.975,73.033 L107.143,73.033 L107.143,85.605 Z M107.097,71.329 L109.998,71.329 L109.998,68.52 L107.097,68.52 L107.097,71.329 Z" id="Fill-34" fill="#1A1919"></path>
                <path d="M113.153,71.329 L116.054,71.329 L116.054,68.52 L113.153,68.52 L113.153,71.329 Z M116.008,84.109 C116.008,87.286 114.787,89.059 112.301,90.487 L110.941,88.461 C112.784,87.194 113.175,86.25 113.175,83.948 L113.175,73.033 L116.008,73.033 L116.008,84.109 Z" id="Fill-35" fill="#1A1919"></path>
            </g>
        </g>
    </g>
</svg>